<svg xmlns="http://www.w3.org/2000/svg" viewBox="0 0 848.95 596.83" fill="#ffffff" role="img" aria-hidden="true"><path d="M337.75,425.26v-252.43l221.81,126.21-221.81,126.23ZM831.24,93.41c-9.78-36.83-38.55-65.74-75.06-75.53C689.95,0,424.48,0,424.48,0c0,0-265.47,0-331.68,17.88C56.28,27.66,27.51,56.57,17.73,93.41,0,160.08,0,299.03,0,299.03c0,0,0,138.97,17.73,205.64,9.78,36.83,38.55,64.5,75.06,74.3,66.21,17.86,331.68,17.86,331.68,17.86,0,0,265.47,0,331.7-17.86,36.52-9.81,65.28-37.62,75.06-74.3,17.71-66.67,17.71-205.64,17.71-205.64,0,0,0-138.95-17.71-205.62"/></svg>
