<svg xmlns="http://www.w3.org/2000/svg" viewBox="0 0 596.83 596.86" fill="#ffffff" role="img" aria-hidden="true"><path d="M511.99,511.58h-88.46v-138.55c0-33.05-.68-75.55-45.96-75.55s-53.17,35.97-53.17,73.14v140.96h-88.46V226.76h84.87v38.91h1.2c11.86-22.4,40.77-45.96,83.79-45.96,89.54,0,106.19,59,106.19,135.76v156.13ZM136.16,187.85c-28.38,0-51.31-23.06-51.31-51.29s22.93-51.29,51.31-51.29,51.29,23.03,51.29,51.29-22.93,51.29-51.29,51.29M180.39,511.58h-88.46V226.76h88.59v284.83h-.13ZM554.21,0H42.5C19.04,0,0,19.32,0,43.03v510.78c0,23.73,19.04,43.05,42.5,43.05h511.71c23.46,0,42.62-19.32,42.62-43.05V43.03c0-23.71-19.17-43.03-42.62-43.03"/></svg>
