<?xml version="1.0"?>
<svg id="Layer_1" data-name="Layer 1" xmlns="http://www.w3.org/2000/svg" viewBox="0 0 2434.81 358.16">
  <defs></defs>
  <path fill="#ffffff" d="M607.78,134.44c-61.7,0-67.73,37.11-67.73,87.27s6.03,88.29,67.73,88.29h102.83v45.16h-117.37c-90.31,0-113.88-53.18-113.88-133.45s23.57-132.42,113.88-132.42h111.35v45.16h-96.81Z"></path>
  <path fill="#ffffff" d="M894.36,313.02c60.21,0,80.77-26.1,80.77-91.31s-20.57-90.29-80.77-90.29-80.76,25.07-80.76,90.29,20.57,91.31,80.76,91.31M1035.83,221.71c0,106.36-46.16,136.45-141.47,136.45s-141.45-30.09-141.45-136.45,46.15-135.43,141.45-135.43,141.47,30.09,141.47,135.43"></path>
  <path fill="#ffffff" d="M1091.69,134.44c0-30.1,15.05-45.16,45.16-45.16h93.29c60.21,0,103.34,20.57,103.34,90.8v175.07h-58.69v-159.53c0-40.13-15.54-61.19-55.68-61.19h-53.67c-10.05,0-15.05,5.01-15.05,15.03v205.69h-58.69v-220.72Z"></path>
  <path fill="#ffffff" d="M1523.78,355.16c-60.21,0-97.83-21.56-97.83-86.78v-133.94h-36.62v-45.16h36.62V4h58.69v85.29h75.75v45.16h-75.75v121.89c0,40.13,21.06,53.67,61.21,53.67h14.54v45.16h-36.62Z"></path>
  <path fill="#ffffff" d="M1624.34,89.29h58.69v265.87h-58.69V89.29ZM1624.34,54.18h0c0-29.92,24.26-54.18,54.18-54.18h4.52v54.18h-58.69Z"></path>
  <path fill="#ffffff" d="M1754.33,134.44c0-30.1,15.05-45.16,45.13-45.16h93.32c60.21,0,103.34,20.57,103.34,90.8v175.07h-58.69v-159.53c0-40.13-15.54-61.19-55.68-61.19h-53.67c-10.05,0-15.05,5.01-15.05,15.03v205.69h-58.69v-220.72Z"></path>
  <path fill="#ffffff" d="M2067.55,89.29h58.69v265.87h-58.69V89.29ZM2067.55,54.18V0h58.69c0,29.92-24.26,54.18-54.18,54.18h-4.52Z"></path>
  <path fill="#ffffff" d="M2278.3,234.76c-20.06,0-28.08,12.54-28.08,37.62s8.02,37.62,28.08,37.62h82.77c10.05,0,15.05-5.01,15.05-15.04v-60.21h-97.82ZM2360.07,89.29c50.16,0,74.74,33.11,74.74,78.26v142.45c0,30.1-15.05,45.16-45.16,45.16h-133.93c-45.14,0-66.21-27.59-66.21-82.78,0-50.16,21.07-82.78,66.21-82.78h120.39v-17.05c0-25.08-12.02-38.11-37.11-38.11h-129.93v-45.16h150.99Z"></path>
  <path fill="#ffffff" d="M190.38,179.58v175.73H0c0-97.06,78.69-175.73,175.74-175.73h14.64Z"></path>
  <path fill="#ffffff" d="M190.38,179.58V3.84h190.38c0,97.06-78.69,175.73-175.74,175.73h-14.64Z"></path>
</svg>