<svg xmlns="http://www.w3.org/2000/svg" viewBox="0 0 1278.04 800.98"><path d="M464.07,381.59h-12.89V37.79h375.11c-9.87,191.25-168.56,343.8-362.22,343.8M413.39,763.19H38.26c9.87-191.26,168.56-343.82,362.23-343.82h12.9v343.82ZM413.39,0v381.59h-12.9C179.67,381.59,0,561.26,0,782.08v18.89h451.18v-381.6h12.89c220.83,0,400.48-179.65,400.48-400.48V0h-451.16Z" fill="#8ff8ff"></path><path d="M877.56,381.59h-12.89V37.79h375.11c-9.87,191.25-168.56,343.8-362.22,343.8M826.88,763.19h-375.13c9.87-191.26,168.56-343.82,362.23-343.82h12.9v343.82ZM826.88,0v381.59h-12.9c-220.83,0-400.5,179.67-400.5,400.5v18.89h451.18v-381.6h12.89c220.83,0,400.48-179.65,400.48-400.48V0h-451.16Z" fill="#8ff8ff"></path></svg>